<?xml version="1.0" encoding="utf-8"?>
<!-- Generator: Adobe Illustrator 26.0.0, SVG Export Plug-In . SVG Version: 6.00 Build 0)  -->
<svg version="1.1" id="Layer_1" xmlns="http://www.w3.org/2000/svg" xmlns:xlink="http://www.w3.org/1999/xlink" x="0px" y="0px"
	 width="800px" height="800px" viewBox="0 0 800 800" style="enable-background:new 0 0 800 800;" xml:space="preserve">
<path id="Fb" d="M400,7.8C184.3,7.8,7.8,183.9,7.8,400.8c0,196.1,143.5,358.8,331,388.3V514.5h-99.6V400.8h99.6v-86.7
	c0-98.4,58.4-152.6,148.2-152.6c42.7,0,87.5,7.5,87.5,7.5v96.9h-49.4c-48.6,0-63.9,30.2-63.9,61.2v73.7h109l-17.6,113.7h-91.4V789
	c92.4-14.6,176.6-61.7,237.3-132.9s93.9-161.7,93.7-255.3C792.2,183.9,615.7,7.8,400,7.8z"/>
</svg>
