<?xml version="1.0" encoding="utf-8"?>
<!-- Generator: Adobe Illustrator 26.0.0, SVG Export Plug-In . SVG Version: 6.00 Build 0)  -->
<svg version="1.1" id="Layer_1" xmlns="http://www.w3.org/2000/svg" xmlns:xlink="http://www.w3.org/1999/xlink" x="0px" y="0px"
	 width="800px" height="800px" viewBox="0 0 800 800" style="enable-background:new 0 0 800 800;" xml:space="preserve">
<path id="Ig" d="M559.2,279.5c-6.9-17.8-21-31.9-38.8-38.8c-12.1-4.5-25-6.9-37.9-7c-21.5-1-28-1.2-82.5-1.2s-61,0.2-82.5,1.2
	c-13,0.1-25.8,2.5-37.9,7c-17.8,6.9-31.9,21-38.8,38.8c-4.5,12.1-6.9,25-7,37.9c-1,21.5-1.2,28-1.2,82.5s0.2,61,1.2,82.5
	c0.1,13,2.5,25.8,7,37.9c6.9,17.8,21,31.9,38.8,38.8c12.1,4.5,25,6.9,37.9,7c21.5,1,28,1.2,82.5,1.2s61-0.2,82.5-1.2
	c13-0.1,25.8-2.5,37.9-7c17.8-6.9,31.9-21,38.8-38.8c4.5-12.1,6.9-25,7-37.9c1-21.5,1.2-28,1.2-82.5s-0.2-61-1.2-82.5
	C566.1,304.5,563.7,291.7,559.2,279.5L559.2,279.5z M400,504.9c-57.9,0-104.9-47-104.9-104.9s47-104.9,104.9-104.9
	s104.9,47,104.9,104.9l0,0C504.9,457.9,457.9,504.9,400,504.9z M509,315.5c-13.5,0-24.5-11-24.5-24.5s11-24.5,24.5-24.5
	s24.5,11,24.5,24.5S522.6,315.5,509,315.5L509,315.5z M468.1,400c0,37.6-30.5,68.1-68.1,68.1s-68.1-30.5-68.1-68.1
	s30.5-68.1,68.1-68.1S468.1,362.4,468.1,400L468.1,400z M400,7.9C183.4,7.9,7.9,183.4,7.9,400S183.4,792.1,400,792.1
	S792.1,616.6,792.1,400S616.6,7.9,400,7.9L400,7.9z M603,484.2c-0.3,16.9-3.6,33.7-9.5,49.6c-10.6,27.4-32.3,49.1-59.7,59.7
	c-15.9,5.9-32.6,9.2-49.5,9.5c-21.8,1-28.8,1.2-84.2,1.2s-62.4-0.2-84.2-1.2c-16.9-0.4-33.7-3.6-49.5-9.5
	c-27.4-10.6-49.1-32.3-59.7-59.7c-5.9-15.9-9.2-32.6-9.5-49.5c-1-21.8-1.2-28.8-1.2-84.2s0.2-62.4,1.2-84.2
	c0.3-16.9,3.5-33.7,9.5-49.5c10.6-27.5,32.3-49.2,59.8-59.8c15.9-5.9,32.6-9.1,49.5-9.5c21.8-1,28.8-1.2,84.2-1.2s62.4,0.2,84.2,1.2
	c16.9,0.3,33.7,3.5,49.5,9.5c27.4,10.6,49.1,32.3,59.7,59.8c5.9,15.9,9.2,32.6,9.5,49.5c1,21.8,1.2,28.8,1.2,84.2
	S604,462.4,603,484.2L603,484.2z"/>
</svg>
