<svg width="97" height="70" viewBox="0 0 97 70" fill="none" xmlns="http://www.w3.org/2000/svg">
<path d="M96.4607 1.1554L59.4007 12.4857L47.6199 44.8524C53.9435 39.7449 59.3026 35.449 66.8353 35.0976C71.7889 34.8663 73.9145 38.7358 71.1953 43.8176C68.7221 48.4394 61.8479 51.5903 58.1153 52.5376C52.2766 54.0189 46.2056 53.7272 45.0353 53.6276L27.5953 68.2615C33.1788 69.2575 42.0084 69.8559 49.3953 68.8876C57.8097 67.7843 64.6665 65.0558 69.2203 62.4221C74.7372 59.231 85.7311 50.7999 86.4553 38.3676C86.999 29.0335 82.1498 23.1076 73.3753 23.1076C69.9331 23.1076 66.7797 24.0016 64.1648 24.8915L65.0174 22.5473L86.7799 17.9216L96.4607 1.1554Z" fill="black"/>
<path d="M30.8383 4.95186L46.0983 0.286438V46.0664C46.0983 50.8792 42.3618 55.9288 37.7594 57.3357L0.540649 68.7136L11.2183 50.2191L30.8383 46.0488V4.95186Z" fill="black"/>
</svg>
