<?xml version="1.0" encoding="utf-8"?>
<!-- Generator: Adobe Illustrator 26.0.0, SVG Export Plug-In . SVG Version: 6.00 Build 0)  -->
<svg version="1.1" id="Layer_1" xmlns="http://www.w3.org/2000/svg" xmlns:xlink="http://www.w3.org/1999/xlink" x="0px" y="0px"
	 width="800px" height="800px" viewBox="0 0 800 800" style="enable-background:new 0 0 800 800;" xml:space="preserve">
<path id="Tk" d="M400,7.8C183.4,7.8,7.8,183.4,7.8,400S183.4,792.2,400,792.2S792.2,616.6,792.2,400S616.6,7.8,400,7.8z
	 M596.7,362.1c-28.9-0.7-56-7.4-80.5-18.8l1.2,0.5c-11.5-5.5-21.3-11.2-30.6-17.5c-0.2,55.1,0.2,110.2-0.4,165
	c-1.5,28-10.9,53.5-25.8,74.8l0.3-0.5c-24.9,35.7-65.3,59.2-111.3,60.6h-0.2c-1.9,0.1-4,0.1-6.2,0.1c-26.1,0-50.5-7.3-71.3-19.9
	l0.6,0.4c-37.9-22.8-64-61.8-68.8-107.1l-0.1-0.6c-0.4-9.4-0.6-18.9-0.2-28.1c7.4-72.2,67.8-128,141.3-128c8.3,0,16.3,0.7,24.2,2
	l-0.8-0.1c0.4,27.9-0.8,55.8-0.8,83.8c-6.4-2.3-13.7-3.6-21.4-3.6c-28.2,0-52.2,18-61.1,43.2l-0.1,0.5c-2,6.5-3.2,13.9-3.2,21.5
	c0,3.1,0.2,6.2,0.6,9.2v-0.4c5,30.9,31.5,54.2,63.4,54.2c0.9,0,1.7,0,2.6-0.1c22.1-0.7,41.3-12.6,52.1-30.1l0.1-0.3
	c4-5.6,6.8-12.4,7.7-19.8v-0.2c1.9-33.8,1.1-67.3,1.3-101.1c0.2-76-0.2-151.9,0.4-227.7h0.1c24.7-0.4,49.2-0.2,73.8-0.4
	c0.8,30.6,13.2,58.2,33,78.7c21.3,19.2,49,31.6,79.6,33.7h0.4L596.7,362.1L596.7,362.1z"/>
</svg>
