<?xml version="1.0" encoding="utf-8"?>
<!-- Generator: Adobe Illustrator 26.0.0, SVG Export Plug-In . SVG Version: 6.00 Build 0)  -->
<svg version="1.1" id="Layer_1" xmlns="http://www.w3.org/2000/svg" xmlns:xlink="http://www.w3.org/1999/xlink" x="0px" y="0px"
	 width="800px" height="800px" viewBox="0 0 800 800" style="enable-background:new 0 0 800 800;" xml:space="preserve">
<path id="Tw" d="M400,7.8C183.4,7.8,7.8,183.4,7.8,400S183.4,792.2,400,792.2S792.2,616.6,792.2,400S616.6,7.8,400,7.8z M556.6,339
	c0.2,3.4,0.2,6.9,0.2,10.4c0,106.5-81,229.3-229.3,229.3c-45.5,0-87.9-13.3-123.5-36.2c6.3,0.8,12.7,1.1,19.3,1.1
	c37.7,0,72.5-12.9,100-34.5c-35.2-0.6-65.1-23.9-75.2-55.9c4.9,0.9,10,1.4,15.2,1.4c7.4,0,14.6-0.9,21.3-2.9
	c-36.9-7.4-64.7-40-64.7-79.1v-0.9c10.9,6,23.3,9.7,36.5,10.1c-21.6-14.4-35.8-39.2-35.8-67.1c0-14.7,4-28.6,10.9-40.6
	c39.8,48.9,99.1,80.9,166.1,84.3c-1.4-5.8-2.1-11.9-2.1-18.4c0-44.4,36.2-80.6,80.6-80.6c23.1,0,44.1,9.8,58.8,25.4
	c18.4-3.7,35.5-10.3,51.2-19.6c-6,18.8-18.8,34.6-35.4,44.6c16.2-2,31.9-6.3,46.3-12.7C586,313.4,572.4,327.5,556.6,339z"/>
</svg>
