<?xml version="1.0" encoding="utf-8"?>
<!-- Generator: Adobe Illustrator 26.0.0, SVG Export Plug-In . SVG Version: 6.00 Build 0)  -->
<svg version="1.1" id="Layer_1" xmlns="http://www.w3.org/2000/svg" xmlns:xlink="http://www.w3.org/1999/xlink" x="0px" y="0px"
	 width="800px" height="800px" viewBox="0 0 800 800" style="enable-background:new 0 0 800 800;" xml:space="preserve">
<g id="Yt">
	<polygon points="347.8,475.5 476.1,400.2 347.8,324.8 	"/>
	<path d="M400,7.8C183.4,7.8,7.8,183.4,7.8,400S183.4,792.2,400,792.2S792.2,616.6,792.2,400S616.6,7.8,400,7.8z M596.1,470.2
		L596.1,470.2c0,67.6-67.6,67.6-67.6,67.6H271.5c-67.6,0-67.6-67.6-67.6-67.6V330c0-67.6,67.6-67.6,67.6-67.6h257.1
		c67.6,0,67.6,67.6,67.6,67.6V470.2z"/>
</g>
</svg>
